<svg xmlns="http://www.w3.org/2000/svg" viewBox="0 0 24 24" width="32" height="32">
  <rect width="24" height="24" rx="6" fill="#0a0b1a"/>
  <defs>
    <linearGradient id="m" x1="2" y1="2" x2="22" y2="22" gradientUnits="userSpaceOnUse">
      <stop stop-color="#f6d68f"/>
      <stop offset="0.5" stop-color="#f0c060"/>
      <stop offset="1" stop-color="#5b8dee"/>
    </linearGradient>
  </defs>
  <path d="M12 3.5c.35 4 2.1 5.75 6 6.1-3.9.35-5.65 2.1-6 6.1-.35-4-2.1-5.75-6-6.1 3.9-.35 5.65-2.1 6-6.1Z" fill="url(#m)"/>
  <path d="M17.5 14.5c.15 1.7.9 2.45 2.5 2.6-1.6.15-2.35.9-2.5 2.6-.15-1.7-.9-2.45-2.5-2.6 1.6-.15 2.35-.9 2.5-2.6Z" fill="#5b8dee"/>
</svg>
